# xmcd CD database file
#
# Track frame offsets:
#	150
#	19722
#	40018
#	60237
#	82723
#
# Disc length: 1341 seconds
#
# Revision: 1
# Processed by: cddbd v1.5.2PL0 Copyright (c) Steve Scherf et al.
# Submitted via: CDex 1.51
#
DISCID=26053b05
DTITLE=Butt of Lewis - Rockall
DYEAR=2009
DGENRE=Country
TTITLE0=Running Out Of Time
TTITLE1=Deep Elm Blues
TTITLE2=On a Bus
TTITLE3=The Whole Night Sky
TTITLE4=455 Rocket
EXTD=YEAR: 2009
EXTT0=
EXTT1=
EXTT2=
EXTT3=
EXTT4=
PLAYORDER=
